<?xml version="1.0" encoding="UTF-8"?><svg xmlns="http://www.w3.org/2000/svg" xmlns:xlink="http://www.w3.org/1999/xlink" contentScriptType="text/ecmascript" width="375" zoomAndPan="magnify" contentStyleType="text/css" viewBox="0 0 375 374.999991" height="374.999991" preserveAspectRatio="xMidYMid meet" version="1.0"><path fill="rgb(56.858826%, 27.839661%, 99.609375%)" d="M 181.496094 143.875 C 163.191406 155.796875 103.867188 173.800781 76.476562 208.320312 C 64.394531 223.65625 65.253906 250.371094 82.488281 259.53125 C 89.382812 263.195312 97.664062 263.386719 105.4375 262.089844 C 126.359375 258.664062 143.933594 245.238281 160.269531 231.425781 C 161.332031 230.445312 160.898438 229.972656 160.269531 231.425781 C 153.039062 247.507812 148.890625 265.976562 150.242188 283.289062 C 151.738281 302.648438 166.722656 322.621094 186.152344 322.324219 C 208.535156 322.136719 222.117188 297.773438 227.867188 276.070312 C 240.964844 227.050781 237.828125 174.925781 227.902344 125.164062 C 226.667969 119.097656 224.375 108.339844 222.289062 100.878906 C 221.886719 99.503906 220.074219 99.433594 219.566406 100.777344 C 218.140625 105.15625 215.582031 123.683594 181.496094 143.875 Z M 181.496094 143.875 " fill-opacity="1" fill-rule="nonzero"/></svg>